<svg xmlns="http://www.w3.org/2000/svg" viewBox="0 0 16 16" width="16" height="16" shape-rendering="crispEdges"><title>kolaymetin</title><style>.dortlu__im--hata{fill:#B42D26}.dortlu__im--uyari{fill:#1B1A17}.dortlu__im--bilgi{fill:#23408E}@media (prefers-color-scheme:dark){.dortlu__im--hata{fill:#FF6B5E}.dortlu__im--uyari{fill:#EFE8D8}.dortlu__im--bilgi{fill:#8FA8FF}}</style><g class="dortlu__im dortlu__im--hata"><rect x="0" y="0" width="7" height="1"/><rect x="0" y="1" width="7" height="1"/><rect x="0" y="2" width="7" height="1"/><rect x="0" y="3" width="7" height="1"/><rect x="0" y="4" width="7" height="1"/><rect x="0" y="5" width="7" height="1"/><rect x="0" y="6" width="7" height="1"/></g><g class="dortlu__im dortlu__im--uyari"><rect x="9" y="0" width="7" height="1"/><rect x="9" y="1" width="1" height="1"/><rect x="15" y="1" width="1" height="1"/><rect x="9" y="2" width="1" height="1"/><rect x="15" y="2" width="1" height="1"/><rect x="9" y="3" width="1" height="1"/><rect x="15" y="3" width="1" height="1"/><rect x="9" y="4" width="1" height="1"/><rect x="15" y="4" width="1" height="1"/><rect x="9" y="5" width="1" height="1"/><rect x="15" y="5" width="1" height="1"/><rect x="9" y="6" width="7" height="1"/></g><g class="dortlu__im dortlu__im--bilgi"><rect x="2" y="9" width="3" height="1"/><rect x="1" y="10" width="1" height="1"/><rect x="5" y="10" width="1" height="1"/><rect x="0" y="11" width="1" height="1"/><rect x="6" y="11" width="1" height="1"/><rect x="0" y="12" width="1" height="1"/><rect x="6" y="12" width="1" height="1"/><rect x="0" y="13" width="1" height="1"/><rect x="6" y="13" width="1" height="1"/><rect x="1" y="14" width="1" height="1"/><rect x="5" y="14" width="1" height="1"/><rect x="2" y="15" width="3" height="1"/></g></svg>
