<svg xmlns="http://www.w3.org/2000/svg" viewBox="0 0 16 16" width="16" height="16" fill="currentColor" shape-rendering="crispEdges" aria-hidden="true"><title>Rehber</title><rect x="1" y="1" width="6" height="1"/><rect x="9" y="1" width="6" height="1"/><rect x="1" y="2" width="1" height="1"/><rect x="7" y="2" width="2" height="1"/><rect x="14" y="2" width="1" height="1"/><rect x="1" y="3" width="1" height="1"/><rect x="3" y="3" width="3" height="1"/><rect x="7" y="3" width="2" height="1"/><rect x="10" y="3" width="3" height="1"/><rect x="14" y="3" width="1" height="1"/><rect x="1" y="4" width="1" height="1"/><rect x="7" y="4" width="2" height="1"/><rect x="14" y="4" width="1" height="1"/><rect x="1" y="5" width="1" height="1"/><rect x="3" y="5" width="3" height="1"/><rect x="7" y="5" width="2" height="1"/><rect x="10" y="5" width="3" height="1"/><rect x="14" y="5" width="1" height="1"/><rect x="1" y="6" width="1" height="1"/><rect x="7" y="6" width="2" height="1"/><rect x="14" y="6" width="1" height="1"/><rect x="1" y="7" width="1" height="1"/><rect x="3" y="7" width="3" height="1"/><rect x="7" y="7" width="2" height="1"/><rect x="10" y="7" width="3" height="1"/><rect x="14" y="7" width="1" height="1"/><rect x="1" y="8" width="1" height="1"/><rect x="7" y="8" width="2" height="1"/><rect x="14" y="8" width="1" height="1"/><rect x="1" y="9" width="1" height="1"/><rect x="3" y="9" width="3" height="1"/><rect x="7" y="9" width="2" height="1"/><rect x="10" y="9" width="3" height="1"/><rect x="14" y="9" width="1" height="1"/><rect x="1" y="10" width="1" height="1"/><rect x="7" y="10" width="2" height="1"/><rect x="14" y="10" width="1" height="1"/><rect x="1" y="11" width="1" height="1"/><rect x="7" y="11" width="2" height="1"/><rect x="14" y="11" width="1" height="1"/><rect x="1" y="12" width="6" height="1"/><rect x="9" y="12" width="6" height="1"/><rect x="7" y="13" width="2" height="1"/></svg>
